<svg width="52" height="42" viewBox="0 0 52 42" fill="none" xmlns="http://www.w3.org/2000/svg" role="img"
    aria-label="PayPal Docs Logo" class="h-8 w-auto sm:h-10">
    <path
        d="M38.7467 10.3502C38.7467 15.29 34.1861 21.1295 27.2961 21.1295H20.6583L20.3368 23.1871L18.7851 33.1072H10.5264L15.4912 1.16797H28.867C33.3679 1.16797 36.9159 3.68412 38.2134 7.17898C38.5811 8.16925 38.7678 9.23852 38.7467 10.3502Z"
        fill="#002991"></path>
    <path
        d="M38.7467 10.3502C38.7467 15.29 34.1861 21.1295 27.2961 21.1295H20.6583L20.3368 23.1871L18.7851 33.1072H10.5264L15.4912 1.16797H28.867C33.3679 1.16797 36.9159 3.68412 38.2134 7.17898C38.5811 8.16925 38.7678 9.23852 38.7467 10.3502Z"
        fill="#002991"></path>
    <path
        d="M43.5093 19.5338C42.5968 25.0728 37.8341 29.1167 32.2108 29.1167H27.6001L25.675 41.0944H17.4663L18.7831 33.1086L20.3347 23.1885L20.6562 21.1309H27.294C34.184 21.1309 38.7446 15.2914 38.7446 10.3516C38.7446 10.3516 38.7485 10.3516 38.7485 10.3535C42.1405 12.1009 44.1138 15.6439 43.5074 19.5338H43.5093Z"
        fill="#60CDFF"></path>
</svg>